<svg width="203" height="44" viewBox="0 0 203 44" fill="none" xmlns="http://www.w3.org/2000/svg">
<path d="M22.82 21.58C25.06 21.98 26.96 23.16 28.52 25.12C30.08 27.08 30.86 29.3 30.86 31.78C30.86 33.9 30.3 35.82 29.18 37.54C28.1 39.22 26.52 40.56 24.44 41.56C22.36 42.52 19.94 43 17.18 43H0.5V1.3H16.4C19.24 1.3 21.68 1.78 23.72 2.74C25.76 3.7 27.3 5 28.34 6.64C29.38 8.24 29.9 10.04 29.9 12.04C29.9 14.44 29.26 16.44 27.98 18.04C26.7 19.64 24.98 20.82 22.82 21.58ZM7.34 18.82H15.8C18.04 18.82 19.78 18.32 21.02 17.32C22.3 16.28 22.94 14.8 22.94 12.88C22.94 11 22.3 9.54 21.02 8.5C19.78 7.42 18.04 6.88 15.8 6.88H7.34V18.82ZM16.58 37.42C18.9 37.42 20.72 36.86 22.04 35.74C23.36 34.62 24.02 33.06 24.02 31.06C24.02 29.02 23.32 27.4 21.92 26.2C20.52 25 18.66 24.4 16.34 24.4H7.34V37.42H16.58ZM45.133 37.48H59.233V43H38.293V1.3H45.133V37.48ZM83.9731 43.42C80.0931 43.42 76.5131 42.52 73.2331 40.72C69.9931 38.88 67.4131 36.34 65.4931 33.1C63.6131 29.82 62.6731 26.14 62.6731 22.06C62.6731 17.98 63.6131 14.32 65.4931 11.08C67.4131 7.84 69.9931 5.32 73.2331 3.52C76.5131 1.68 80.0931 0.759997 83.9731 0.759997C87.8931 0.759997 91.4731 1.68 94.7131 3.52C97.9931 5.32 100.573 7.84 102.453 11.08C104.333 14.32 105.273 17.98 105.273 22.06C105.273 26.14 104.333 29.82 102.453 33.1C100.573 36.34 97.9931 38.88 94.7131 40.72C91.4731 42.52 87.8931 43.42 83.9731 43.42ZM83.9731 37.48C86.7331 37.48 89.1931 36.86 91.3531 35.62C93.5131 34.34 95.1931 32.54 96.3931 30.22C97.6331 27.86 98.2531 25.14 98.2531 22.06C98.2531 18.98 97.6331 16.28 96.3931 13.96C95.1931 11.64 93.5131 9.86 91.3531 8.62C89.1931 7.38 86.7331 6.76 83.9731 6.76C81.2131 6.76 78.7531 7.38 76.5931 8.62C74.4331 9.86 72.7331 11.64 71.4931 13.96C70.2931 16.28 69.6931 18.98 69.6931 22.06C69.6931 25.14 70.2931 27.86 71.4931 30.22C72.7331 32.54 74.4331 34.34 76.5931 35.62C78.7531 36.86 81.2131 37.48 83.9731 37.48ZM131.024 43.42C127.144 43.42 123.564 42.52 120.284 40.72C117.044 38.88 114.464 36.34 112.544 33.1C110.664 29.82 109.724 26.14 109.724 22.06C109.724 17.98 110.664 14.32 112.544 11.08C114.464 7.84 117.044 5.32 120.284 3.52C123.564 1.68 127.144 0.759997 131.024 0.759997C134.944 0.759997 138.524 1.68 141.764 3.52C145.044 5.32 147.624 7.84 149.504 11.08C151.384 14.32 152.324 17.98 152.324 22.06C152.324 26.14 151.384 29.82 149.504 33.1C147.624 36.34 145.044 38.88 141.764 40.72C138.524 42.52 134.944 43.42 131.024 43.42ZM131.024 37.48C133.784 37.48 136.244 36.86 138.404 35.62C140.564 34.34 142.244 32.54 143.444 30.22C144.684 27.86 145.304 25.14 145.304 22.06C145.304 18.98 144.684 16.28 143.444 13.96C142.244 11.64 140.564 9.86 138.404 8.62C136.244 7.38 133.784 6.76 131.024 6.76C128.264 6.76 125.804 7.38 123.644 8.62C121.484 9.86 119.784 11.64 118.544 13.96C117.344 16.28 116.744 18.98 116.744 22.06C116.744 25.14 117.344 27.86 118.544 30.22C119.784 32.54 121.484 34.34 123.644 35.62C125.804 36.86 128.264 37.48 131.024 37.48ZM202.975 1.3V43H196.135V14.44L183.415 43H178.675L165.895 14.44V43H159.055V1.3H166.435L181.075 34L195.655 1.3H202.975Z" fill="white"/>
</svg>
